<svg width="78" height="106" viewBox="0 0 78 106" fill="none"
    xmlns="http://www.w3.org/2000/svg">
    <g filter="url(#filter0_bdi_7302_19759)">
        <path d="M62.1 32.2681C62.1 35.7456 61.4258 38.7618 60.0774 41.3167C58.729 43.8716 56.8483 45.9652 54.4354 47.5975C52.0723 49.1613 49.3008 50.2656 46.121 50.9105C46.0039 50.9343 45.9191 51.0369 45.9191 51.1564C45.9191 51.2822 46.0136 51.3885 46.1384 51.4049C52.2032 52.2046 56.7608 54.1823 59.8113 57.338C62.9339 60.5316 64.4953 64.7188 64.4953 69.8995C64.4953 74.4061 63.4307 78.3981 61.3016 81.8756C59.2081 85.3531 55.979 88.0854 51.6143 90.0725C47.2852 92.0242 41.7319 93 34.9543 93C30.8381 93 27.0235 92.6629 23.5106 91.9887C20.2398 91.3879 17.0946 90.3948 14.0749 89.0092C13.7248 88.8486 13.5039 88.4966 13.5039 88.1114V82.0485C13.5039 81.3071 14.2836 80.8214 14.9593 81.1267C17.7813 82.4015 20.8091 83.4318 24.0428 84.2176C27.8397 85.1047 31.5123 85.5482 35.0608 85.5482C42.1577 85.5482 47.2852 84.1466 50.4434 81.3433C53.6015 78.5045 55.1806 74.6367 55.1806 69.7399C55.1806 66.3688 54.2934 63.6542 52.5192 61.5961C50.7805 59.5025 48.2611 57.9767 44.961 57.0186C41.6964 56.0251 37.7576 55.5283 33.1446 55.5283H26.3735C25.8212 55.5283 25.3735 55.0806 25.3735 54.5283V48.9701C25.3735 48.4178 25.8212 47.9701 26.3735 47.9701H33.1979C37.4205 47.9701 41.0045 47.3491 43.9497 46.1071C46.8949 44.8652 49.1304 43.1264 50.6563 40.8909C52.2176 38.6199 52.9982 35.9408 52.9982 32.8536C52.9982 28.9148 51.6853 25.8809 49.0595 23.7518C46.4336 21.5873 42.8674 20.505 38.3609 20.505C35.5931 20.505 33.0737 20.7889 30.8026 21.3566C28.5316 21.9244 26.4026 22.705 24.4154 23.6986C22.6938 24.5594 20.9722 25.54 19.2507 26.6405C18.8021 26.9273 18.2062 26.8221 17.8904 26.3935L14.5619 21.8762C14.2399 21.4392 14.3244 20.8239 14.7634 20.5046C17.4486 18.5516 20.6482 16.8485 24.3622 15.3952C28.4429 13.7984 33.0737 13 38.2544 13C46.203 13 52.1644 14.8097 56.1386 18.4291C60.1129 22.0486 62.1 26.6616 62.1 32.2681Z" fill="url(#paint0_linear_7302_19759)"/>
    </g>
    <defs>
        <filter id="filter0_bdi_7302_19759" x="0.503906" y="0" width="76.9922" height="106" filterUnits="userSpaceOnUse" color-interpolation-filters="sRGB">
            <feFlood flood-opacity="0" result="BackgroundImageFix"/>
            <feGaussianBlur in="BackgroundImageFix" stdDeviation="2.56691"/>
            <feComposite in2="SourceAlpha" operator="in" result="effect1_backgroundBlur_7302_19759"/>
            <feColorMatrix in="SourceAlpha" type="matrix" values="0 0 0 0 0 0 0 0 0 0 0 0 0 0 0 0 0 0 127 0" result="hardAlpha"/>
            <feOffset/>
            <feGaussianBlur stdDeviation="6.5"/>
            <feColorMatrix type="matrix" values="0 0 0 0 0.306067 0 0 0 0 0.00333333 0 0 0 0 0.8 0 0 0 0.87 0"/>
            <feBlend mode="normal" in2="effect1_backgroundBlur_7302_19759" result="effect2_dropShadow_7302_19759"/>
            <feBlend mode="normal" in="SourceGraphic" in2="effect2_dropShadow_7302_19759" result="shape"/>
            <feColorMatrix in="SourceAlpha" type="matrix" values="0 0 0 0 0 0 0 0 0 0 0 0 0 0 0 0 0 0 127 0" result="hardAlpha"/>
            <feOffset dx="7.70072" dy="-1.28345"/>
            <feGaussianBlur stdDeviation="1.28345"/>
            <feComposite in2="hardAlpha" operator="arithmetic" k2="-1" k3="1"/>
            <feColorMatrix type="matrix" values="0 0 0 0 1 0 0 0 0 1 0 0 0 0 1 0 0 0 0.2 0"/>
            <feBlend mode="normal" in2="shape" result="effect3_innerShadow_7302_19759"/>
        </filter>
        <linearGradient id="paint0_linear_7302_19759" x1="64.4953" y1="53.16" x2="13.6773" y2="53.16" gradientUnits="userSpaceOnUse">
            <stop stop-color="#9EB4FF"/>
            <stop offset="0.0208333" stop-color="#9DAEFF" stop-opacity="0.55"/>
            <stop offset="0.223958" stop-color="#8C7AFA" stop-opacity="0.6"/>
            <stop offset="0.859375" stop-color="#5F3CEA" stop-opacity="0.69"/>
            <stop offset="1" stop-color="#6461FF" stop-opacity="0.65"/>
        </linearGradient>
    </defs>
</svg>
