<svg width="48" height="48" viewBox="0 0 48 48" fill="none" xmlns="http://www.w3.org/2000/svg">
<path d="M0.768262 47.8527C0.178625 47.5621 -0.157799 46.7268 0.0736855 46.1282C0.167401 45.8859 3.91702 41.0689 10.9121 32.2047C20.65 19.8647 27.0959 11.8239 30.9656 7.18961C31.7283 6.27613 32.3524 5.48514 32.3524 5.43186C32.3524 5.37858 31.9198 5.12786 31.3911 4.87471C28.7861 3.62732 26.3019 3.00019 23.2488 2.81916C22.1665 2.75499 21.9332 2.71318 21.6895 2.53966C21.2836 2.25061 21.0662 1.74633 21.1244 1.22932C21.1802 0.734269 21.4042 0.402806 21.8518 0.15277C22.1462 -0.0116456 22.3061 -0.0237379 23.5369 0.0253377C26.7482 0.153379 29.762 0.938198 32.8139 2.44116L34.3538 3.19955L34.9709 2.53881C36.0796 1.35147 37.174 0.661665 38.6085 0.245834C39.2183 0.0690532 39.5563 0.0349219 40.6521 0.0394771C41.8796 0.0445817 42.023 0.064717 42.856 0.349096C44.082 0.767653 44.9242 1.28908 45.8182 2.1832C47.1658 3.53095 47.8884 5.13956 47.9872 7.01146C48.1056 9.25634 47.3329 11.1939 45.6634 12.8382L44.9477 13.5432L45.1739 13.9007C45.5685 14.5242 46.2918 16.0409 46.6347 16.9635C48.6937 22.5045 48.3523 29.4704 45.7346 35.3236C45.1779 36.5685 44.2999 38.1372 43.6298 39.0843C43.2101 39.6774 43.2091 39.6806 43.3839 39.8979C43.4804 40.0179 43.9215 40.5518 44.364 41.0845C45.745 42.7465 47.2779 44.8837 47.8157 45.897C48.4658 47.1219 47.2831 48.4266 46.0335 47.863C45.7169 47.7202 45.5228 47.4943 44.8671 46.5055C44.025 45.2355 43.1129 44.0099 42.062 42.7359L41.4086 41.9438L40.3405 42.9105C37.9898 45.038 35.4101 46.4154 32.6983 46.991C31.4111 47.2642 29.1291 47.2917 28.226 47.0448C25.7276 46.3618 23.8008 44.5518 22.9618 42.0998C22.6764 41.2658 22.6565 41.1247 22.6516 39.8957C22.6454 38.3457 22.7696 37.7783 23.3909 36.5192C24.3478 34.5798 26.0592 33.1874 28.1905 32.6141C29.1455 32.3573 30.9053 32.3363 32.0964 32.5676C34.8595 33.1042 37.6884 34.6113 40.4646 37.0261C40.8256 37.3402 41.1483 37.5973 41.1817 37.5974C41.215 37.5976 41.4408 37.2792 41.6835 36.8898C45.647 30.5299 46.283 22.5272 43.3099 16.4242C43.0524 15.8954 42.8125 15.4628 42.777 15.4628C42.7415 15.4628 41.7635 16.25 40.6038 17.2122C35.0828 21.7925 24.0501 30.6109 11.1576 40.7485C3.74493 46.5772 2.25588 47.7345 1.99184 47.8723C1.65193 48.0496 1.15142 48.0416 0.768262 47.8527ZM32.135 44.2036C34.3973 43.7363 36.6728 42.4908 38.6035 40.663L39.4109 39.8986L38.8123 39.3467C37.3126 37.9639 35.2347 36.6152 33.6185 35.9756C32.1532 35.3958 31.6985 35.3064 30.1954 35.303L28.8356 35.2998L28.1322 35.6373C25.6713 36.8181 24.724 39.644 25.9917 42.0226C26.5579 43.085 27.9218 44.0963 29.1179 44.3406C29.7089 44.4613 31.2191 44.3928 32.135 44.2036ZM15.0027 34.1117C25.2075 26.0599 33.6452 19.2994 38.4455 15.3285C39.7592 14.2417 40.9185 13.2834 41.0215 13.199C41.2055 13.0484 41.2004 13.0355 40.743 12.4956C40.4867 12.1931 40.0343 11.6942 39.7377 11.3869L39.1984 10.8281L38.7999 11.2118C38.2791 11.7131 38.0837 11.8051 37.54 11.8043C36.7415 11.8033 36.1992 11.2614 36.1981 10.4637C36.1978 10.2161 36.2575 9.89959 36.3309 9.76029C36.4042 9.621 37.2166 8.76193 38.1362 7.85127C39.9916 6.01379 40.2476 5.85296 40.9717 6.06993C41.4217 6.20478 41.8872 6.7142 41.9716 7.16426C42.0522 7.59384 41.8219 8.21211 41.4476 8.57073L41.1679 8.83875L41.992 9.68875C42.4453 10.1562 42.9331 10.6821 43.076 10.8573L43.3359 11.1758L43.7112 10.8104C45.2104 9.35063 45.5982 7.13599 44.6739 5.31177C44.3383 4.64953 43.4337 3.72912 42.7713 3.37602C42.006 2.96809 41.0879 2.76894 40.277 2.835C38.9786 2.94077 37.964 3.4645 36.9431 4.55595C34.4598 7.21081 25.4888 18.2835 13.5544 33.424C11.6026 35.9001 9.95888 37.9893 9.90172 38.0667C9.76673 38.2495 9.28798 38.6207 15.0027 34.1117Z" fill="#C293FF"/>
</svg>
