<svg width="48" height="48" viewBox="0 0 48 48" fill="none" xmlns="http://www.w3.org/2000/svg">
<g clip-path="url(#clip0_7354_14084)">
<path d="M16.3039 47.5347C15.8483 47.2903 15.6258 46.9507 15.5771 46.4249C15.5367 45.9898 15.7104 45.5972 20.0126 36.3983C22.4752 31.1327 24.5084 26.7401 24.5309 26.6368C24.5617 26.495 24.4673 26.384 24.1453 26.1829C23.3316 25.6749 22.6201 24.6682 22.3433 23.6333C22.1063 22.7475 22.2079 21.5412 22.5852 20.7603C22.6822 20.5594 22.722 20.3951 22.6735 20.3951C22.625 20.3951 19.968 21.0968 16.769 21.9543C12.1878 23.1824 10.8824 23.5003 10.622 23.4514C10.2299 23.3779 9.65961 22.9065 9.58027 22.5904C9.54932 22.4671 9.49818 22.3662 9.46661 22.3662C9.43504 22.3662 7.97822 22.7493 6.22923 23.2176C2.77611 24.1421 2.57458 24.1664 2.04444 23.7203C1.89806 23.5971 1.73103 23.3793 1.67327 23.2363C1.52352 22.8656 -0.0291737 17.0021 -0.0292968 16.8069C-0.0294958 16.4922 0.27648 15.8853 0.524356 15.7088C0.726629 15.5648 2.85975 14.9579 6.84927 13.9093C7.19126 13.8194 7.20238 13.8038 7.14445 13.495C7.05223 13.0034 7.38303 12.3978 7.8811 12.1463C8.09898 12.0363 10.8959 11.248 14.0966 10.3945C17.2972 9.541 20.2383 8.75662 20.6324 8.65145L21.3488 8.46024L21.3422 8.01909C21.3349 7.53965 21.5296 7.12302 21.884 6.85967C22.0409 6.74305 32.6313 3.82593 35.2747 3.17119C35.4996 3.1155 35.522 3.06854 35.522 2.65324C35.522 2.09406 35.7965 1.60794 36.2256 1.40723C36.3926 1.32913 37.9079 0.896711 39.593 0.446288C42.9109 -0.440604 43.0754 -0.45964 43.6007 -0.0176236C43.7504 0.108335 43.9201 0.328398 43.9778 0.471407C44.1575 0.916655 48.0271 15.4504 48.0271 15.68C48.0271 15.9992 47.6987 16.5883 47.4184 16.7719C47.0765 16.996 41.3157 18.5398 40.7925 18.5476C40.261 18.5555 39.8022 18.3026 39.5741 17.8761C39.482 17.7037 39.3864 17.5425 39.3617 17.5178C39.3261 17.4822 32.8806 19.1715 30.695 19.7892L30.211 19.926L30.536 20.5596C31.5219 22.4812 30.9681 24.8014 29.2138 26.0984C28.9009 26.3298 28.6569 26.5604 28.6716 26.611C28.6862 26.6615 30.7242 31.0447 33.2003 36.3514C35.8877 42.1106 37.7016 46.1078 37.7004 46.2675C37.6966 46.7591 37.3733 47.3055 36.9623 47.5152C36.4864 47.758 36.1766 47.759 35.6812 47.5192C35.4014 47.3837 35.2218 47.2035 35.0495 46.8856C34.9172 46.6412 32.9866 42.5344 30.7593 37.7593C28.532 32.9841 26.6805 29.0477 26.6448 29.0116C26.6092 28.9755 24.6793 33.0215 22.3563 38.0028C19.8106 43.4614 18.0393 47.1489 17.8979 47.2842C17.433 47.7292 16.8402 47.8223 16.3039 47.5347ZM27.3816 23.9334C27.8607 23.68 28.2226 23.0864 28.2226 22.5539C28.2226 22.0542 27.8556 21.4212 27.4177 21.1656C27.1241 20.9942 26.9416 20.9572 26.5188 20.9832C25.5638 21.042 24.9711 21.7322 25.0507 22.6928C25.1481 23.8672 26.3236 24.4929 27.3816 23.9334ZM6.44931 20.2575C7.70065 19.9238 8.73357 19.6387 8.74468 19.624C8.77298 19.5866 7.96904 16.6298 7.91621 16.5769C7.87098 16.5317 3.24237 17.7491 3.16486 17.8266C3.12392 17.8675 3.44272 19.1759 3.78501 20.3717C3.86364 20.6464 3.98094 20.8644 4.0501 20.8644C4.11832 20.8644 5.19797 20.5913 6.44931 20.2575ZM17.8891 18.7528C21.059 17.902 23.6667 17.1918 23.684 17.1746C23.7237 17.1348 22.159 11.2968 22.0902 11.228C22.043 11.1807 10.3869 14.2653 10.3055 14.3465C10.2854 14.3667 10.6233 15.7143 11.0564 17.3413C11.6465 19.5578 11.8792 20.2995 11.9847 20.2995C12.0622 20.2996 14.7191 19.6035 17.8891 18.7528ZM31.9687 16.5406C38.6027 14.7661 38.5658 14.7762 38.6174 14.7246C38.6666 14.6754 36.3925 6.0992 36.2834 5.9227C36.2362 5.84624 34.5048 6.27371 30.3705 7.38259C27.1551 8.24499 24.5078 8.96713 24.4876 8.98734C24.4573 9.01764 26.2047 15.6745 26.6875 17.3681C26.7648 17.6392 26.8741 17.8609 26.9304 17.8609C26.9867 17.8609 29.2539 17.2668 31.9687 16.5406ZM43.3694 15.0451C44.1339 14.8386 44.7766 14.6697 44.7976 14.6697C44.8186 14.6697 44.8358 14.6082 44.8358 14.533C44.8358 14.4091 41.7473 2.81158 41.7082 2.7886C41.6753 2.7693 38.7071 3.59064 38.6679 3.6299C38.5874 3.71038 41.7724 15.4205 41.8748 15.4205C41.9323 15.4205 42.6049 15.2516 43.3694 15.0451Z" fill="#C293FF"/>
</g>
<defs>
<clipPath id="clip0_7354_14084">
<rect width="48" height="48" fill="white"/>
</clipPath>
</defs>
</svg>
